<?xml version="1.0" encoding="UTF-8" standalone="no"?>
<!-- Created by MetaPost 1.999 on 2016.05.18:0840 -->

<svg
   xmlns:dc="http://purl.org/dc/elements/1.1/"
   xmlns:cc="http://creativecommons.org/ns#"
   xmlns:rdf="http://www.w3.org/1999/02/22-rdf-syntax-ns#"
   xmlns:svg="http://www.w3.org/2000/svg"
   xmlns="http://www.w3.org/2000/svg"
   xmlns:sodipodi="http://sodipodi.sourceforge.net/DTD/sodipodi-0.dtd"
   xmlns:inkscape="http://www.inkscape.org/namespaces/inkscape"
   version="1.1"
   width="320"
   height="290"
   viewBox="0 0 319.99999 289.99999"
   id="svg2"
   inkscape:version="0.91 r13725"
   sodipodi:docname="preview-3.svg">
  <metadata
     id="metadata40">
    <rdf:RDF>
      <cc:Work
         rdf:about="">
        <dc:format>image/svg+xml</dc:format>
        <dc:type
           rdf:resource="http://purl.org/dc/dcmitype/StillImage" />
        <dc:title></dc:title>
      </cc:Work>
    </rdf:RDF>
  </metadata>
  <defs
     id="defs38">
    <marker
       inkscape:isstock="true"
       style="overflow:visible"
       id="marker10242"
       refX="0"
       refY="0"
       orient="auto"
       inkscape:stockid="Arrow1Lend">
      <path
         transform="matrix(-0.8,0,0,-0.8,-10,0)"
         style="fill:#000000;fill-opacity:1;fill-rule:evenodd;stroke:#000000;stroke-width:1pt;stroke-opacity:1"
         d="M 0,0 5,-5 -12.5,0 5,5 0,0 Z"
         id="path10244"
         inkscape:connector-curvature="0" />
    </marker>
    <marker
       inkscape:isstock="true"
       style="overflow:visible"
       id="marker10136"
       refX="0"
       refY="0"
       orient="auto"
       inkscape:stockid="Arrow1Lend">
      <path
         transform="matrix(-0.8,0,0,-0.8,-10,0)"
         style="fill:#000000;fill-opacity:1;fill-rule:evenodd;stroke:#000000;stroke-width:1pt;stroke-opacity:1"
         d="M 0,0 5,-5 -12.5,0 5,5 0,0 Z"
         id="path10138"
         inkscape:connector-curvature="0" />
    </marker>
    <marker
       inkscape:isstock="true"
       style="overflow:visible"
       id="marker10036"
       refX="0"
       refY="0"
       orient="auto"
       inkscape:stockid="Arrow1Lend">
      <path
         transform="matrix(-0.8,0,0,-0.8,-10,0)"
         style="fill:#0000ff;fill-opacity:1;fill-rule:evenodd;stroke:#0000ff;stroke-width:1pt;stroke-opacity:1"
         d="M 0,0 5,-5 -12.5,0 5,5 0,0 Z"
         id="path10038"
         inkscape:connector-curvature="0" />
    </marker>
    <marker
       inkscape:isstock="true"
       style="overflow:visible"
       id="marker9942"
       refX="0"
       refY="0"
       orient="auto"
       inkscape:stockid="Arrow1Lend">
      <path
         transform="matrix(-0.8,0,0,-0.8,-10,0)"
         style="fill:#000000;fill-opacity:1;fill-rule:evenodd;stroke:#000000;stroke-width:1pt;stroke-opacity:1"
         d="M 0,0 5,-5 -12.5,0 5,5 0,0 Z"
         id="path9944"
         inkscape:connector-curvature="0" />
    </marker>
    <marker
       inkscape:isstock="true"
       style="overflow:visible"
       id="marker9854"
       refX="0"
       refY="0"
       orient="auto"
       inkscape:stockid="Arrow1Lend">
      <path
         transform="matrix(-0.8,0,0,-0.8,-10,0)"
         style="fill:#0000ff;fill-opacity:1;fill-rule:evenodd;stroke:#0000ff;stroke-width:1pt;stroke-opacity:1"
         d="M 0,0 5,-5 -12.5,0 5,5 0,0 Z"
         id="path9856"
         inkscape:connector-curvature="0" />
    </marker>
    <marker
       inkscape:isstock="true"
       style="overflow:visible"
       id="marker9772"
       refX="0"
       refY="0"
       orient="auto"
       inkscape:stockid="Arrow1Lend">
      <path
         transform="matrix(-0.8,0,0,-0.8,-10,0)"
         style="fill:#00ff00;fill-opacity:1;fill-rule:evenodd;stroke:#00ff00;stroke-width:1pt;stroke-opacity:1"
         d="M 0,0 5,-5 -12.5,0 5,5 0,0 Z"
         id="path9774"
         inkscape:connector-curvature="0" />
    </marker>
    <marker
       inkscape:isstock="true"
       style="overflow:visible"
       id="marker9696"
       refX="0"
       refY="0"
       orient="auto"
       inkscape:stockid="Arrow1Lend">
      <path
         transform="matrix(-0.8,0,0,-0.8,-10,0)"
         style="fill:#00ff00;fill-opacity:1;fill-rule:evenodd;stroke:#00ff00;stroke-width:1pt;stroke-opacity:1"
         d="M 0,0 5,-5 -12.5,0 5,5 0,0 Z"
         id="path9698"
         inkscape:connector-curvature="0" />
    </marker>
    <marker
       inkscape:isstock="true"
       style="overflow:visible"
       id="marker9686"
       refX="0"
       refY="0"
       orient="auto"
       inkscape:stockid="Arrow1Lend">
      <path
         transform="matrix(-0.8,0,0,-0.8,-10,0)"
         style="fill:#ff0000;fill-opacity:1;fill-rule:evenodd;stroke:#ff0000;stroke-width:1pt;stroke-opacity:1"
         d="M 0,0 5,-5 -12.5,0 5,5 0,0 Z"
         id="path9688"
         inkscape:connector-curvature="0" />
    </marker>
    <marker
       inkscape:isstock="true"
       style="overflow:visible"
       id="marker9598"
       refX="0"
       refY="0"
       orient="auto"
       inkscape:stockid="Arrow1Lstart">
      <path
         transform="matrix(0.8,0,0,0.8,10,0)"
         style="fill:#000000;fill-opacity:1;fill-rule:evenodd;stroke:#000000;stroke-width:1pt;stroke-opacity:1"
         d="M 0,0 5,-5 -12.5,0 5,5 0,0 Z"
         id="path9600"
         inkscape:connector-curvature="0" />
    </marker>
    <marker
       inkscape:isstock="true"
       style="overflow:visible"
       id="marker9534"
       refX="0"
       refY="0"
       orient="auto"
       inkscape:stockid="Arrow1Lstart">
      <path
         transform="matrix(0.8,0,0,0.8,10,0)"
         style="fill:#000000;fill-opacity:1;fill-rule:evenodd;stroke:#000000;stroke-width:1pt;stroke-opacity:1"
         d="M 0,0 5,-5 -12.5,0 5,5 0,0 Z"
         id="path9536"
         inkscape:connector-curvature="0" />
    </marker>
    <marker
       inkscape:isstock="true"
       style="overflow:visible"
       id="marker9476"
       refX="0"
       refY="0"
       orient="auto"
       inkscape:stockid="Arrow1Lstart">
      <path
         transform="matrix(0.8,0,0,0.8,10,0)"
         style="fill:#0000ff;fill-opacity:1;fill-rule:evenodd;stroke:#0000ff;stroke-width:1pt;stroke-opacity:1"
         d="M 0,0 5,-5 -12.5,0 5,5 0,0 Z"
         id="path9478"
         inkscape:connector-curvature="0" />
    </marker>
    <marker
       inkscape:isstock="true"
       style="overflow:visible"
       id="marker9424"
       refX="0"
       refY="0"
       orient="auto"
       inkscape:stockid="Arrow1Lstart">
      <path
         transform="matrix(0.8,0,0,0.8,10,0)"
         style="fill:#000000;fill-opacity:1;fill-rule:evenodd;stroke:#000000;stroke-width:1pt;stroke-opacity:1"
         d="M 0,0 5,-5 -12.5,0 5,5 0,0 Z"
         id="path9426"
         inkscape:connector-curvature="0" />
    </marker>
    <marker
       inkscape:isstock="true"
       style="overflow:visible"
       id="marker9378"
       refX="0"
       refY="0"
       orient="auto"
       inkscape:stockid="Arrow1Lstart">
      <path
         transform="matrix(0.8,0,0,0.8,10,0)"
         style="fill:#0000ff;fill-opacity:1;fill-rule:evenodd;stroke:#0000ff;stroke-width:1pt;stroke-opacity:1"
         d="M 0,0 5,-5 -12.5,0 5,5 0,0 Z"
         id="path9380"
         inkscape:connector-curvature="0" />
    </marker>
    <marker
       inkscape:isstock="true"
       style="overflow:visible"
       id="marker9338"
       refX="0"
       refY="0"
       orient="auto"
       inkscape:stockid="Arrow1Lstart">
      <path
         transform="matrix(0.8,0,0,0.8,10,0)"
         style="fill:#00ff00;fill-opacity:1;fill-rule:evenodd;stroke:#00ff00;stroke-width:1pt;stroke-opacity:1"
         d="M 0,0 5,-5 -12.5,0 5,5 0,0 Z"
         id="path9340"
         inkscape:connector-curvature="0" />
    </marker>
    <marker
       inkscape:isstock="true"
       style="overflow:visible"
       id="marker9304"
       refX="0"
       refY="0"
       orient="auto"
       inkscape:stockid="Arrow1Lstart">
      <path
         transform="matrix(0.8,0,0,0.8,10,0)"
         style="fill:#00ff00;fill-opacity:1;fill-rule:evenodd;stroke:#00ff00;stroke-width:1pt;stroke-opacity:1"
         d="M 0,0 5,-5 -12.5,0 5,5 0,0 Z"
         id="path9306"
         inkscape:connector-curvature="0" />
    </marker>
    <marker
       inkscape:isstock="true"
       style="overflow:visible"
       id="marker9276"
       refX="0"
       refY="0"
       orient="auto"
       inkscape:stockid="Arrow1Lstart">
      <path
         transform="matrix(0.8,0,0,0.8,10,0)"
         style="fill:#ff0000;fill-opacity:1;fill-rule:evenodd;stroke:#ff0000;stroke-width:1pt;stroke-opacity:1"
         d="M 0,0 5,-5 -12.5,0 5,5 0,0 Z"
         id="path9278"
         inkscape:connector-curvature="0" />
    </marker>
    <marker
       inkscape:stockid="Arrow1Lend"
       orient="auto"
       refY="0"
       refX="0"
       id="Arrow1Lend"
       style="overflow:visible"
       inkscape:isstock="true"
       inkscape:collect="always">
      <path
         id="path8107"
         d="M 0,0 5,-5 -12.5,0 5,5 0,0 Z"
         style="fill:#ff0000;fill-opacity:1;fill-rule:evenodd;stroke:#ff0000;stroke-width:1pt;stroke-opacity:1"
         transform="matrix(-0.8,0,0,-0.8,-10,0)"
         inkscape:connector-curvature="0" />
    </marker>
  </defs>
  <sodipodi:namedview
     pagecolor="#ffffff"
     bordercolor="#666666"
     borderopacity="1"
     objecttolerance="10"
     gridtolerance="10"
     guidetolerance="10"
     inkscape:pageopacity="0"
     inkscape:pageshadow="2"
     inkscape:window-width="1440"
     inkscape:window-height="851"
     id="namedview36"
     showgrid="false"
     inkscape:zoom="2.237931"
     inkscape:cx="160"
     inkscape:cy="145"
     inkscape:window-x="0"
     inkscape:window-y="1"
     inkscape:window-maximized="1"
     inkscape:current-layer="svg2"
     inkscape:snap-page="true" />
  <!-- Original BoundingBox: -141.982250 -141.982250 141.982250 141.982250 -->
  <path
     d="m 286.75382,146.14181 c 0,-37.58973 -14.93246,-73.639875 -41.51242,-100.219828 C 218.66145,19.342028 182.6113,4.4095671 145.02157,4.4095671 107.43184,4.4095671 71.38169,19.342028 44.801737,45.921982 18.221783,72.501935 3.2893216,108.55208 3.2893216,146.14181 c 0,37.58973 14.9324614,73.63988 41.5124154,100.21983 26.579953,26.57996 62.630103,41.51242 100.219833,41.51242 37.58973,0 73.63988,-14.93246 100.21983,-41.51242 26.57996,-26.57995 41.51242,-62.6301 41.51242,-100.21983 z"
     style="fill:none;stroke:#000000;stroke-width:0.5;stroke-linecap:round;stroke-linejoin:round;stroke-miterlimit:10"
     id="path4"
     inkscape:connector-curvature="0" />
  <path
     d="m 145.02157,146.14181 -36.68301,35.43306"
     style="fill:none;stroke:#0000ff;stroke-width:0.5;stroke-linecap:round;stroke-linejoin:round;stroke-miterlimit:10;marker-end:url(#marker10036)"
     id="path6"
     inkscape:connector-curvature="0" />
  <path
     d="m 145.02157,146.14181 136.90284,9.49426"
     style="fill:none;stroke:#0000ff;stroke-width:0.5;stroke-linecap:round;stroke-linejoin:round;stroke-miterlimit:10;marker-end:url(#marker9854)"
     id="path8"
     inkscape:connector-curvature="0" />
  <path
     d="M 145.02157,146.14181 44.801737,172.08061"
     style="fill:none;stroke:#000000;stroke-width:0.5;stroke-linecap:round;stroke-linejoin:round;stroke-miterlimit:10;marker-end:url(#marker10136)"
     id="path10"
     inkscape:connector-curvature="0" />
  <path
     d="m 145.02157,146.14181 100.21983,25.9388"
     style="fill:none;stroke:#000000;stroke-width:0.5;stroke-linecap:round;stroke-linejoin:round;stroke-miterlimit:10;marker-end:url(#marker9942)"
     id="path12"
     inkscape:connector-curvature="0" />
  <path
     d="m 145.02157,146.14181 0,-136.9028336"
     style="fill:none;stroke:#000000;stroke-width:0.5;stroke-linecap:round;stroke-linejoin:miter;stroke-miterlimit:9.09999752;stroke-dasharray:none;marker-end:url(#marker10242)"
     id="path14"
     inkscape:connector-curvature="0" />
  <path
     d="m 145.02157,146.14181 -31.76842,99.13735"
     style="fill:none;stroke:#ff0000;stroke-width:0.5;stroke-linecap:round;stroke-linejoin:round;stroke-miterlimit:10;marker-end:url(#marker9686)"
     id="path16"
     inkscape:connector-curvature="0" />
  <path
     d="M 145.02157,146.14181 126.68007,45.29701"
     style="fill:none;stroke:#ff0000;stroke-width:0.5;stroke-linecap:round;stroke-linejoin:round;stroke-miterlimit:10;marker-end:url(#Arrow1Lend)"
     id="path18"
     inkscape:connector-curvature="0" />
  <path
     d="m 145.02157,146.14181 74.34127,76.81415"
     style="fill:none;stroke:#00ff00;stroke-width:0.5;stroke-linecap:round;stroke-linejoin:round;stroke-miterlimit:10;marker-end:url(#marker9696)"
     id="path20"
     inkscape:connector-curvature="0" />
  <path
     d="M 145.02157,146.14181 264.29016,82.754579"
     style="fill:none;stroke:#00ff00;stroke-width:0.5;stroke-linecap:round;stroke-linejoin:round;stroke-miterlimit:10;marker-end:url(#marker9772)"
     id="path22"
     inkscape:connector-curvature="0" />
  <path
     d="m 286.75382,146.14181 c 0,-9.73574 -14.93246,-19.07273 -41.51242,-25.95694 -26.57995,-6.8842 -62.6301,-10.75171 -100.21983,-10.75171 -37.58973,0 -73.63988,3.86751 -100.219833,10.75171 -26.579954,6.88421 -41.5124154,16.2212 -41.5124154,25.95694"
     style="fill:none;stroke:#0000ff;stroke-width:0.5;stroke-linecap:round;stroke-linejoin:round;stroke-miterlimit:10;stroke-dasharray:3, 3"
     id="path24"
     inkscape:connector-curvature="0" />
  <path
     d="m 3.2893216,146.14181 c 0,9.73574 14.9324614,19.07273 41.5124154,25.95694 26.579953,6.8842 62.630103,10.75171 100.219833,10.75171 37.58973,0 73.63988,-3.86751 100.21983,-10.75171 26.57996,-6.88421 41.51242,-16.2212 41.51242,-25.95694"
     style="fill:none;stroke:#0000ff;stroke-width:0.5;stroke-linecap:round;stroke-linejoin:round;stroke-miterlimit:10"
     id="path26"
     inkscape:connector-curvature="0" />
  <path
     d="m 135.13483,287.52881 c 9.37454,0.65553 19.40676,-13.61188 27.88968,-39.66355 8.48293,-26.05167 14.72168,-61.7536 17.34381,-99.25177 2.62213,-37.49816 1.41284,-73.720896 -3.36184,-100.699632 C 172.2318,20.935121 164.28285,5.410351 154.90831,4.7548201"
     style="fill:none;stroke:#ff0000;stroke-width:0.5;stroke-linecap:round;stroke-linejoin:round;stroke-miterlimit:10;stroke-dasharray:3, 3"
     id="path28"
     inkscape:connector-curvature="0" />
  <path
     d="m 154.90831,4.7548201 c -9.37454,-0.655532 -19.40676,13.6118719 -27.88968,39.6635459 -8.48293,26.051675 -14.72168,61.753594 -17.34381,99.251754 -2.62213,37.49817 -1.41284,73.72091 3.36184,100.69965 4.77468,26.97874 12.72363,42.50351 22.09817,43.15904"
     style="fill:none;stroke:#ff0000;stroke-width:0.5;stroke-linecap:round;stroke-linejoin:round;stroke-miterlimit:10"
     id="path30"
     inkscape:connector-curvature="0" />
  <path
     d="M 284.60059,121.53026 C 280.09669,95.987396 261.07166,74.083687 231.71078,60.637708 202.3499,47.191729 165.05826,43.304906 128.0396,49.832294 91.020947,56.359682 57.307644,72.766592 34.316237,95.443692 11.324829,118.12079 0.93865565,145.21048 5.4425526,170.75336"
     style="fill:none;stroke:#00ff00;stroke-width:0.5;stroke-linecap:round;stroke-linejoin:round;stroke-miterlimit:10;stroke-dasharray:3, 3;stroke-dashoffset:0"
     id="path32"
     inkscape:connector-curvature="0" />
  <path
     d="m 5.4425526,170.75336 c 4.503898,25.54287 23.5289324,47.44658 52.8898124,60.89256 29.360881,13.44598 66.652515,17.3328 103.671175,10.80541 37.01866,-6.52739 70.73196,-22.9343 93.72336,-45.6114 22.99141,-22.6771 33.37759,-49.76679 28.87369,-75.30967"
     style="fill:none;stroke:#00ff00;stroke-width:0.5;stroke-linecap:round;stroke-linejoin:round;stroke-miterlimit:10"
     id="path34"
     inkscape:connector-curvature="0" />
  <text
     xml:space="preserve"
     style="font-style:normal;font-variant:normal;font-weight:normal;font-stretch:normal;font-size:40px;line-height:125%;font-family:'Times New Roman';-inkscape-font-specification:'Times New Roman, ';letter-spacing:0px;word-spacing:0px;fill:#000000;fill-opacity:1;stroke:none;stroke-width:1px;stroke-linecap:butt;stroke-linejoin:miter;stroke-opacity:1"
     x="32.024235"
     y="181.90863"
     id="text10379"
     sodipodi:linespacing="125%"><tspan
       sodipodi:role="line"
       id="tspan10381"
       x="32.024235"
       y="181.90863"
       style="font-style:italic;font-variant:normal;font-weight:normal;font-stretch:normal;font-size:20px;font-family:'Times New Roman';-inkscape-font-specification:'Times New Roman,  Italic'">x</tspan></text>
  <text
     xml:space="preserve"
     style="font-style:italic;font-variant:normal;font-weight:normal;font-stretch:normal;font-size:20px;line-height:125%;font-family:'Times New Roman';-inkscape-font-specification:'Times New Roman,  Italic';letter-spacing:0px;word-spacing:0px;fill:#000000;fill-opacity:1;stroke:none;stroke-width:1px;stroke-linecap:butt;stroke-linejoin:miter;stroke-opacity:1"
     x="242.04422"
     y="186.72159"
     id="text10404"
     sodipodi:linespacing="125%"><tspan
       sodipodi:role="line"
       id="tspan10406"
       x="242.04422"
       y="186.72159">y</tspan></text>
  <text
     xml:space="preserve"
     style="font-style:italic;font-variant:normal;font-weight:normal;font-stretch:normal;font-size:20px;line-height:125%;font-family:'Times New Roman';-inkscape-font-specification:'Times New Roman,  Italic';letter-spacing:0px;word-spacing:0px;fill:#000000;fill-opacity:1;stroke:none;stroke-width:1px;stroke-linecap:butt;stroke-linejoin:miter;stroke-opacity:1"
     x="150.16046"
     y="18.268064"
     id="text10408"
     sodipodi:linespacing="125%"><tspan
       sodipodi:role="line"
       id="tspan10410"
       x="150.16046"
       y="18.268064">z,z'</tspan></text>
  <text
     xml:space="preserve"
     style="font-style:italic;font-variant:normal;font-weight:normal;font-stretch:normal;font-size:20px;line-height:125%;font-family:'Times New Roman';-inkscape-font-specification:'Times New Roman,  Italic';letter-spacing:0px;word-spacing:0px;fill:#000000;fill-opacity:1;stroke:none;stroke-width:1px;stroke-linecap:butt;stroke-linejoin:miter;stroke-opacity:1"
     x="92.404976"
     y="196.3475"
     id="text10412"
     sodipodi:linespacing="125%"><tspan
       sodipodi:role="line"
       id="tspan10414"
       x="92.404976"
       y="196.3475">x'</tspan></text>
  <text
     xml:space="preserve"
     style="font-style:italic;font-variant:normal;font-weight:normal;font-stretch:normal;font-size:20px;line-height:125%;font-family:'Times New Roman';-inkscape-font-specification:'Times New Roman,  Italic';letter-spacing:0px;word-spacing:0px;fill:#000000;fill-opacity:1;stroke:none;stroke-width:1px;stroke-linecap:butt;stroke-linejoin:miter;stroke-opacity:1"
     x="120.40764"
     y="241.85184"
     id="text10416"
     sodipodi:linespacing="125%"><tspan
       sodipodi:role="line"
       id="tspan10418"
       x="120.40764"
       y="241.85184">x''</tspan></text>
  <text
     xml:space="preserve"
     style="font-style:italic;font-variant:normal;font-weight:normal;font-stretch:normal;font-size:20px;line-height:125%;font-family:'Times New Roman';-inkscape-font-specification:'Times New Roman,  Italic';letter-spacing:0px;word-spacing:0px;fill:#000000;fill-opacity:1;stroke:none;stroke-width:1px;stroke-linecap:butt;stroke-linejoin:miter;stroke-opacity:1"
     x="280.98541"
     y="167.46976"
     id="text10420"
     sodipodi:linespacing="125%"><tspan
       sodipodi:role="line"
       id="tspan10422"
       x="280.98541"
       y="167.46976">y',y''</tspan></text>
  <text
     xml:space="preserve"
     style="font-style:italic;font-variant:normal;font-weight:normal;font-stretch:normal;font-size:20px;line-height:125%;font-family:'Times New Roman';-inkscape-font-specification:'Times New Roman,  Italic';letter-spacing:0px;word-spacing:0px;fill:#000000;fill-opacity:1;stroke:none;stroke-width:1px;stroke-linecap:butt;stroke-linejoin:miter;stroke-opacity:1"
     x="216.22925"
     y="236.60133"
     id="text10424"
     sodipodi:linespacing="125%"><tspan
       sodipodi:role="line"
       id="tspan10426"
       x="216.22925"
       y="236.60133">x'''</tspan></text>
  <text
     xml:space="preserve"
     style="font-style:italic;font-variant:normal;font-weight:normal;font-stretch:normal;font-size:20px;line-height:125%;font-family:'Times New Roman';-inkscape-font-specification:'Times New Roman,  Italic';letter-spacing:0px;word-spacing:0px;fill:#000000;fill-opacity:1;stroke:none;stroke-width:1px;stroke-linecap:butt;stroke-linejoin:miter;stroke-opacity:1"
     x="246.85719"
     y="106.21391"
     id="text10428"
     sodipodi:linespacing="125%"><tspan
       sodipodi:role="line"
       id="tspan10430"
       x="246.85719"
       y="106.21391">y'''</tspan></text>
  <text
     xml:space="preserve"
     style="font-style:normal;font-variant:normal;font-weight:normal;font-stretch:normal;font-size:40px;line-height:125%;font-family:'.Savoye LET CC.';-inkscape-font-specification:'.Savoye LET CC.';letter-spacing:0px;word-spacing:0px;fill:#000000;fill-opacity:1;stroke:none;stroke-width:1px;stroke-linecap:butt;stroke-linejoin:miter;stroke-opacity:1"
     x="91.96743"
     y="85.649467"
     id="text10432"
     sodipodi:linespacing="125%"><tspan
       sodipodi:role="line"
       id="tspan10434"
       x="91.96743"
       y="85.649467"
       style="font-style:normal;font-variant:normal;font-weight:normal;font-stretch:normal;font-family:Symbol;-inkscape-font-specification:Symbol" /></text>
  <text
     xml:space="preserve"
     style="font-style:italic;font-variant:normal;font-weight:normal;font-stretch:normal;font-size:20px;line-height:125%;font-family:'Times New Roman';-inkscape-font-specification:'Times New Roman,  Italic';letter-spacing:0px;word-spacing:0px;fill:#000000;fill-opacity:1;stroke:none;stroke-width:1px;stroke-linecap:butt;stroke-linejoin:miter;stroke-opacity:1"
     x="107.28139"
     y="46.708279"
     id="text10515"
     sodipodi:linespacing="125%"><tspan
       sodipodi:role="line"
       id="tspan10517"
       x="107.28139"
       y="46.708279">z'',z'''</tspan></text>
  <text
     xml:space="preserve"
     style="font-style:italic;font-variant:normal;font-weight:normal;font-stretch:normal;font-size:15px;line-height:125%;font-family:'Times New Roman';-inkscape-font-specification:'Times New Roman, Italic';text-align:start;letter-spacing:0px;word-spacing:0px;writing-mode:lr-tb;text-anchor:start;fill:#000000;fill-opacity:1;stroke:none;stroke-width:1px;stroke-linecap:butt;stroke-linejoin:miter;stroke-opacity:1"
     x="132.22127"
     y="74.710922"
     id="text10519"
     sodipodi:linespacing="125%"><tspan
       sodipodi:role="line"
       id="tspan10521"
       x="132.22127"
       y="74.710922">Θ</tspan></text>
  <text
     xml:space="preserve"
     style="font-style:italic;font-variant:normal;font-weight:normal;font-stretch:normal;font-size:15px;line-height:125%;font-family:'Times New Roman';-inkscape-font-specification:'Times New Roman, Italic';text-align:start;letter-spacing:0px;word-spacing:0px;writing-mode:lr-tb;text-anchor:start;fill:#000000;fill-opacity:1;stroke:none;stroke-width:1px;stroke-linecap:butt;stroke-linejoin:miter;stroke-opacity:1"
     x="242.9193"
     y="166.15714"
     id="text10523"
     sodipodi:linespacing="125%"><tspan
       sodipodi:role="line"
       id="tspan10525"
       x="242.9193"
       y="166.15714">Φ</tspan></text>
  <text
     xml:space="preserve"
     style="font-style:italic;font-variant:normal;font-weight:normal;font-stretch:normal;font-size:15px;line-height:125%;font-family:'Times New Roman';-inkscape-font-specification:'Times New Roman, Italic';text-align:start;letter-spacing:0px;word-spacing:0px;writing-mode:lr-tb;text-anchor:start;fill:#000000;fill-opacity:1;stroke:none;stroke-width:1px;stroke-linecap:butt;stroke-linejoin:miter;stroke-opacity:1"
     x="223.22992"
     y="138.59201"
     id="text10527"
     sodipodi:linespacing="125%"><tspan
       sodipodi:role="line"
       id="tspan10529"
       x="223.22992"
       y="138.59201">Ψ</tspan></text>
  <text
     xml:space="preserve"
     style="font-style:italic;font-variant:normal;font-weight:normal;font-stretch:normal;font-size:15px;line-height:125%;font-family:'Times New Roman';-inkscape-font-specification:'Times New Roman, Italic';text-align:start;letter-spacing:0px;word-spacing:0px;writing-mode:lr-tb;text-anchor:start;fill:#000000;fill-opacity:1;stroke:none;stroke-width:1px;stroke-linecap:butt;stroke-linejoin:miter;stroke-opacity:1"
     x="112.09435"
     y="202.47308"
     id="text10531"
     sodipodi:linespacing="125%"><tspan
       sodipodi:role="line"
       id="tspan10533"
       x="112.09435"
       y="202.47308">Θ</tspan></text>
  <text
     xml:space="preserve"
     style="font-style:italic;font-variant:normal;font-weight:normal;font-stretch:normal;font-size:15px;line-height:125%;font-family:'Times New Roman';-inkscape-font-specification:'Times New Roman, Italic';text-align:start;letter-spacing:0px;word-spacing:0px;writing-mode:lr-tb;text-anchor:start;fill:#000000;fill-opacity:1;stroke:none;stroke-width:1px;stroke-linecap:butt;stroke-linejoin:miter;stroke-opacity:1"
     x="89.779732"
     y="175.78304"
     id="text10535"
     sodipodi:linespacing="125%"><tspan
       sodipodi:role="line"
       id="tspan10537"
       x="89.779732"
       y="175.78304">Φ</tspan></text>
  <text
     xml:space="preserve"
     style="font-style:italic;font-variant:normal;font-weight:normal;font-stretch:normal;font-size:15px;line-height:125%;font-family:'Times New Roman';-inkscape-font-specification:'Times New Roman, Italic';text-align:start;letter-spacing:0px;word-spacing:0px;writing-mode:lr-tb;text-anchor:start;fill:#000000;fill-opacity:1;stroke:none;stroke-width:1px;stroke-linecap:butt;stroke-linejoin:miter;stroke-opacity:1"
     x="150.59802"
     y="210.34883"
     id="text10539"
     sodipodi:linespacing="125%"><tspan
       sodipodi:role="line"
       id="tspan10541"
       x="150.59802"
       y="210.34883">Ψ</tspan></text>
  <path
     style="fill:#ffaaaa;fill-opacity:1;stroke:#ff0096;stroke-width:0;stroke-linecap:butt;stroke-linejoin:miter;stroke-miterlimit:0;stroke-dasharray:none;stroke-dashoffset:0;stroke-opacity:1"
     d="m 141.74069,126.03706 c -1.55489,-8.52734 -2.86961,-15.67201 -2.9216,-15.87705 -0.0816,-0.32191 0.12509,-0.38164 1.51445,-0.43754 0.88494,-0.0356 1.60898,-0.16318 1.60898,-0.28351 0,-0.12091 -0.73738,-0.24697 -1.64848,-0.28182 l -1.64848,-0.0631 -5.26447,-28.924074 c -2.89546,-15.908245 -5.23976,-28.955458 -5.20954,-28.993806 0.0302,-0.03835 0.56098,0.293837 1.17949,0.738192 0.61851,0.444352 1.17623,0.756246 1.23938,0.693096 0.0632,-0.06315 -0.13792,-0.613569 -0.44682,-1.223152 -0.3089,-0.609585 -0.56163,-1.198711 -0.56163,-1.30917 0,-0.11046 0.54145,-0.268487 1.20323,-0.351171 0.8685,-0.108513 1.20324,-0.243426 1.20324,-0.484954 0,-0.281939 -0.23269,-0.311247 -1.47813,-0.186174 l -1.47813,0.148443 -0.9573,-1.953042 -0.9573,-1.953041 0.71473,-2.165765 c 3.76399,-11.405687 8.85064,-22.364811 13.19028,-28.418263 1.40336,-1.95757 2.80838,-3.653744 2.92771,-3.53441 0.0511,0.05105 -0.25675,1.307082 -0.68402,2.791175 -0.42726,1.484092 -0.77684,2.845429 -0.77684,3.025193 0,0.18987 0.45842,-0.124677 1.09386,-0.750562 l 1.09385,-1.077406 0,8.982165 c 0,8.636972 -0.0164,8.997047 -0.42791,9.369423 -0.43466,0.393359 -0.56036,0.949494 -0.85494,3.782508 -0.14419,1.386769 -0.12017,1.586089 0.19112,1.586089 0.19582,0 0.51527,-0.319953 0.70989,-0.711006 0.32747,-0.65799 0.3549,1.960161 0.36785,35.112715 0.009,23.745961 -0.0598,35.823717 -0.20478,35.823717 -0.28577,0 -0.28452,0.59793 0.001,0.69325 0.14578,0.0486 0.20125,5.42577 0.16408,15.90532 l -0.0561,15.83192 -2.82708,-15.50424 z m -2.25778,-51.777489 c 1.9501,-1.142837 3.39573,-3.474883 3.59432,-5.79826 0.13389,-1.566432 -0.54145,-3.005478 -1.69356,-3.608721 -0.95775,-0.501473 -3.01445,-0.412777 -4.25411,0.183459 -2.12995,1.024434 -3.82831,3.585013 -3.98535,6.008643 -0.10865,1.676771 0.31068,2.651292 1.49171,3.466732 0.6533,0.451071 0.93303,0.501666 2.30643,0.41719 1.17106,-0.07203 1.80809,-0.239791 2.54056,-0.669043 z m -2.62682,-25.433914 c 0.70903,-0.09912 1.03917,-0.248683 1.03917,-0.470788 0,-0.272628 -0.25771,-0.300105 -1.58609,-0.169107 -1.79588,0.177099 -1.91425,0.219823 -1.91425,0.690952 0,0.262449 0.16152,0.311722 0.71101,0.216903 0.39105,-0.06748 1.17863,-0.188062 1.75016,-0.26796 z m 6.16231,-0.710604 c 1.09744,-0.194954 1.3215,-0.698345 0.30966,-0.695707 -1.58625,0.0041 -3.02633,0.277986 -3.02633,0.575499 0,0.329532 1.23157,0.384026 2.71667,0.120208 z m -7.9983,-2.721238 c 0.48397,-1.567055 0.2764,-1.860543 -0.5889,-0.83265 -0.57877,0.687529 -0.59692,0.692285 -2.38816,0.62599 l -1.80497,-0.0668 3.17228,-3.317377 c 1.74476,-1.824558 3.17228,-3.426951 3.17228,-3.560874 0,-0.17049 -0.96098,-0.225345 -3.20512,-0.182956 l -3.20513,0.06054 -0.26396,0.765698 c -0.55425,1.607801 -0.57959,1.750166 -0.31159,1.750166 0.14471,0 0.49121,-0.246117 0.76999,-0.546927 0.46089,-0.497308 0.66886,-0.546927 2.29235,-0.546927 l 1.78547,0 -2.62773,2.789328 c -1.44525,1.53413 -2.88391,3.027993 -3.19703,3.319696 -1.09081,1.016199 -0.86136,1.110413 2.70432,1.110413 l 3.27362,0 0.42228,-1.367318 z m 5.75167,-8.984843 c 0.66105,-1.44726 1.03047,-2.526772 0.95069,-2.778137 -0.26473,-0.834079 -1.57183,-0.723652 -2.04948,0.173142 -0.18443,0.346285 -0.68181,3.778257 -0.68325,4.714598 -4e-4,0.24972 0.13055,0.37244 0.35012,0.328156 0.20503,-0.04135 0.79991,-1.054103 1.43192,-2.437759 z"
     id="path10569"
     inkscape:connector-curvature="0" />
  <path
     style="fill:#ffaaaa;fill-opacity:1;stroke:#ff0096;stroke-width:0;stroke-linecap:butt;stroke-linejoin:miter;stroke-miterlimit:0;stroke-dasharray:none;stroke-dashoffset:0;stroke-opacity:1"
     d="m 135.58299,73.821278 c -0.60821,-0.523635 -0.64096,-0.640011 -0.63763,-2.265905 0.003,-1.379612 0.11382,-1.950565 0.56905,-2.927142 1.38505,-2.971286 3.74259,-4.336206 5.11653,-2.962264 0.68706,0.687065 0.84854,1.391662 0.66169,2.887201 -0.19657,1.573292 -1.50302,4.108516 -2.55116,4.950635 -1.13416,0.911236 -2.32928,1.031364 -3.15848,0.317475 z m 0.82829,-2.896564 c 0.38419,-0.488418 0.5779,-0.549429 1.56288,-0.492235 1.00694,0.05847 1.12252,0.116681 1.10696,0.557521 -0.01,0.270728 0.0977,0.492234 0.23831,0.492234 0.2521,0 1.27757,-3.277988 1.08555,-3.470016 -0.0544,-0.05439 -0.34129,0.162652 -0.63755,0.482321 -0.80147,0.864791 -2.74726,0.795026 -2.74726,-0.0985 0,-0.880753 -0.41514,-0.347573 -0.85377,1.096528 -0.65126,2.144118 -0.59124,2.495105 0.24488,1.432149 z"
     id="path10571"
     inkscape:connector-curvature="0" />
  <path
     style="fill:#ffaaaa;fill-opacity:1;stroke:#ff0096;stroke-width:0;stroke-linecap:butt;stroke-linejoin:miter;stroke-miterlimit:0;stroke-dasharray:none;stroke-dashoffset:0;stroke-opacity:1"
     d="m 115.85518,181.62412 c -2.69637,-0.15057 -5.00758,-0.37886 -5.13602,-0.5073 -0.12844,-0.12844 0.94554,-0.79707 2.38663,-1.48585 1.44108,-0.68877 2.62015,-1.39993 2.62015,-1.58035 0,-0.18041 -0.53012,-0.39033 -1.17804,-0.46647 -1.05982,-0.12456 0.33293,-1.59631 13.87749,-14.66471 8.28054,-7.98944 15.10229,-14.47949 15.15945,-14.42234 0.0572,0.0572 -2.29697,7.62767 -5.23139,16.82335 l -5.33531,16.71943 -6.13023,-0.071 c -3.37163,-0.039 -8.33636,-0.19419 -11.03273,-0.34477 z"
     id="path10573"
     inkscape:connector-curvature="0" />
  <path
     style="fill:#ffaaaa;fill-opacity:1;stroke:#ff0096;stroke-width:0;stroke-linecap:butt;stroke-linejoin:miter;stroke-miterlimit:0;stroke-dasharray:none;stroke-dashoffset:0;stroke-opacity:1"
     d="m 111.88764,233.23225 c -1.74076,-13.40554 -3.15831,-34.57191 -3.16137,-47.20458 l -9.9e-4,-4.10673 2.00811,0.27524 c 1.10446,0.15139 6.21283,0.40593 11.35192,0.56565 5.1391,0.15972 9.57422,0.4328 9.85583,0.60684 0.36314,0.22444 -1.74539,7.36014 -7.25224,24.54309 -4.27033,13.32465 -8.24722,25.78164 -8.83753,27.68219 l -1.07328,3.45554 -0.81151,-1.23708 -0.81152,-1.23708 -0.13657,2.15695 c -0.0993,1.56825 -0.40794,0.0671 -1.13085,-5.50003 z m 7.33617,-31.17484 c 4.89525,-2.49298 5.15631,-9.95407 0.34828,-9.95407 -3.44727,0 -6.57291,3.21288 -6.64855,6.83411 -0.0348,1.66773 0.15825,2.16399 1.18602,3.04823 1.52589,1.3128 2.64641,1.32852 5.11425,0.0717 z"
     id="path10575"
     inkscape:connector-curvature="0" />
  <path
     style="fill:#ffaaaa;fill-opacity:1;stroke:#ff0096;stroke-width:0;stroke-linecap:butt;stroke-linejoin:miter;stroke-miterlimit:0;stroke-dasharray:none;stroke-dashoffset:0;stroke-opacity:1"
     d="m 119.90088,198.4477 c 0.13312,-0.72195 0.3444,-1.65719 0.46951,-2.07833 0.12512,-0.42113 0.0173,-0.7657 -0.23954,-0.7657 -0.25687,0 -0.46703,0.17393 -0.46703,0.38652 0,0.82642 -1.75444,0.80626 -2.71949,-0.0312 l -0.99961,-0.86751 1.22763,-1.05651 c 2.14652,-1.84729 3.8188,-1.16374 3.78436,1.54687 -0.0109,0.8543 -0.30731,2.14395 -0.6588,2.8659 l -0.63906,1.31262 0.24203,-1.31262 z"
     id="path10577"
     inkscape:connector-curvature="0" />
  <path
     style="fill:#ffaaaa;fill-opacity:1;stroke:#ff0096;stroke-width:0;stroke-linecap:butt;stroke-linejoin:miter;stroke-miterlimit:0;stroke-dasharray:none;stroke-dashoffset:0;stroke-opacity:1"
     d="m 115.57499,201.36665 c -0.86998,-0.96132 -0.90429,-2.87685 -0.0836,-4.66912 0.71281,-1.55672 0.89849,-0.4336 0.22233,1.34482 -0.51762,1.36145 -0.13229,2.08623 0.50434,0.94863 0.52979,-0.94668 2.5707,-1.03063 2.5707,-0.10574 0,0.36097 0.19689,0.65631 0.43754,0.65631 0.90294,0 0.38784,0.91824 -0.98447,1.75496 -1.73949,1.06059 -1.76976,1.06138 -2.66682,0.0701 z"
     id="path10579"
     inkscape:connector-curvature="0" />
  <path
     style="fill:#ffaaaa;fill-opacity:1;stroke:#ff0096;stroke-width:0;stroke-linecap:butt;stroke-linejoin:miter;stroke-miterlimit:0;stroke-dasharray:none;stroke-dashoffset:0;stroke-opacity:1"
     d="m 113.95747,237.35469 c -0.53356,-0.99696 -0.63501,-1.03552 -0.88082,-0.33479 -0.20769,0.59209 -0.34613,0.40731 -0.54853,-0.73215 -0.50441,-2.83957 -1.5984,-13.29908 -2.26455,-21.65101 -0.58463,-7.32996 -1.67413,-32.23268 -1.41697,-32.38783 0.0536,-0.0323 2.36173,0.0987 5.12918,0.29127 2.76745,0.19253 7.91649,0.47356 11.44231,0.62452 l 6.41058,0.27447 -1.01512,3.78516 c -0.55832,2.08184 -1.60822,5.65565 -2.3331,7.9418 -5.97943,18.85795 -13.73952,43.11799 -13.82053,43.20658 -0.0547,0.0598 -0.37079,-0.39831 -0.70245,-1.01802 z m 6.40629,-35.84782 c 4.10285,-3.12939 3.60015,-9.40353 -0.75343,-9.40353 -3.56308,0 -6.48651,2.79792 -6.84737,6.55338 -0.18504,1.92582 -0.0794,2.25828 1.05047,3.30684 1.06025,0.98392 1.54583,1.13326 3.11296,0.95734 1.09931,-0.12341 2.50156,-0.70025 3.43737,-1.41403 z"
     id="path10581"
     inkscape:connector-curvature="0" />
  <path
     style="fill:#aaaaff;fill-opacity:1;stroke:#ff0096;stroke-width:0;stroke-linecap:butt;stroke-linejoin:miter;stroke-miterlimit:0;stroke-dasharray:none;stroke-dashoffset:0;stroke-opacity:1"
     d="m 101.94338,180.67329 c -7.915306,-0.67156 -20.444248,-2.14077 -27.565116,-3.23243 -9.776021,-1.49871 -23.870585,-4.32896 -22.424008,-4.50284 1.408264,-0.16928 1.578988,-0.78336 0.328156,-1.18036 -0.481296,-0.15276 -0.874771,-0.41215 -0.874391,-0.57642 7.73e-4,-0.33336 56.516059,-15.02827 56.780479,-14.76385 0.0921,0.0921 0.0249,5.69801 -0.14949,12.45747 -0.28093,10.89059 -0.39691,12.28309 -1.01862,12.2298 -0.38587,-0.0331 -2.67053,-0.2272 -5.07701,-0.43137 z m -5.381756,-5.28404 c -0.79465,-0.79465 -0.633508,-1.22493 0.459418,-1.22675 1.532503,-0.003 3.771978,-1.58978 4.102798,-2.90788 0.3801,-1.51446 -0.63098,-3.38742 -1.929712,-3.57465 -1.250477,-0.18028 -1.243135,-0.87239 0.01461,-1.37795 0.760215,-0.30557 0.399173,-0.40202 -1.584969,-0.42344 -2.226942,-0.024 -2.497408,0.0591 -2.029046,0.6234 0.58799,0.70849 0.491687,0.77571 -1.843146,1.28655 -1.847806,0.40429 -3.028436,1.94154 -2.876331,3.74516 0.105083,1.24604 0.396683,1.66069 1.542127,2.1929 1.485551,0.69024 1.865346,1.31263 0.80099,1.31263 -0.34677,0 -0.752177,0.19689 -0.900906,0.43754 -0.16832,0.27235 0.680938,0.43754 2.249393,0.43754 1.959854,0 2.403132,-0.11668 1.994761,-0.52505 l 9e-6,0 z"
     id="path10583"
     inkscape:connector-curvature="0" />
  <path
     style="fill:#aaaaff;fill-opacity:1;stroke:#ff0096;stroke-width:0;stroke-linecap:butt;stroke-linejoin:miter;stroke-miterlimit:0;stroke-dasharray:none;stroke-dashoffset:0;stroke-opacity:1"
     d="m 108.91029,171.97643 c 0.13742,-4.21134 0.25347,-9.33058 0.25789,-11.37608 0.004,-2.04551 0.1679,-3.97102 0.36328,-4.27891 0.33913,-0.53442 32.2,-9.03496 32.83574,-8.76063 0.2939,0.12682 -20.79112,20.75871 -27.16209,26.57836 -3.01745,2.75633 -3.07928,2.78796 -2.77927,1.42201 0.19717,-0.89773 0.13804,-1.39704 -0.16546,-1.39704 -0.25977,0 -0.47676,0.14767 -0.48219,0.32815 -0.005,0.18049 -0.70915,1.41107 -1.56382,2.73464 l -1.55393,2.40648 0.24985,-7.65698 z"
     id="path10585"
     inkscape:connector-curvature="0" />
  <path
     style="fill:#aaaaff;fill-opacity:1;stroke:#ff0096;stroke-width:0;stroke-linecap:butt;stroke-linejoin:miter;stroke-miterlimit:0;stroke-dasharray:none;stroke-dashoffset:0;stroke-opacity:1"
     d="m 96.606357,172.08581 c 0.389916,-1.94168 1.125436,-3.60972 1.591701,-3.60972 0.238137,0 0.642774,0.39201 0.899192,0.87114 0.738956,1.38075 -0.881988,3.94182 -2.494842,3.94182 -0.130723,0 -0.128946,-0.54146 0.0039,-1.20324 z"
     id="path10587"
     inkscape:connector-curvature="0" />
  <path
     style="fill:#aaaaff;fill-opacity:1;stroke:#ff0096;stroke-width:0;stroke-linecap:butt;stroke-linejoin:miter;stroke-miterlimit:0;stroke-dasharray:none;stroke-dashoffset:0;stroke-opacity:1"
     d="m 93.061291,172.764 c -0.771836,-0.77183 -0.642643,-1.83269 0.38179,-3.13504 0.96449,-1.22616 2.423791,-1.60686 2.008226,-0.52392 -0.132742,0.34592 -0.456737,1.42884 -0.719989,2.40648 -0.504945,1.87522 -0.81486,2.10765 -1.670027,1.25248 z"
     id="path10589"
     inkscape:connector-curvature="0" />
  <path
     style="fill:#aaaaff;fill-opacity:1;stroke:#ff0096;stroke-width:0;stroke-linecap:butt;stroke-linejoin:miter;stroke-miterlimit:0;stroke-dasharray:none;stroke-dashoffset:0;stroke-opacity:1"
     d="m 241.82181,169.48982 c -3.30123,-2.0479 -4.00757,-2.18478 -3.16673,-0.61366 0.26862,0.50191 0.32164,0.91256 0.11783,0.91256 -0.20381,0 -12.86116,-3.23375 -28.12744,-7.18611 -15.26629,-3.95237 -28.29835,-7.32091 -28.96013,-7.48565 -0.78299,-0.19491 -1.20324,-0.58859 -1.20324,-1.12717 0,-0.45521 -0.19689,-0.82765 -0.43754,-0.82765 -0.24065,0 -0.43754,0.29534 -0.43754,0.65631 0,0.36097 -0.14767,0.64732 -0.32816,0.63632 -1.14357,-0.0697 -28.11822,-7.3555 -27.23696,-7.35669 0.60162,-8.1e-4 7.09911,0.42802 14.43887,0.95297 l 13.34502,0.95444 -0.13689,0.98447 c -0.16937,1.21812 0.78919,1.3131 1.10397,0.10939 0.13834,-0.52901 0.59799,-0.87598 1.16227,-0.87735 1.95678,-0.005 90.70473,6.16284 92.16087,6.40476 1.52503,0.25337 1.5273,0.25718 0.54693,0.91721 -1.68133,1.13193 -1.09847,1.34817 1.9254,0.71431 1.60042,-0.33548 2.98712,-0.5327 3.08155,-0.43828 0.0944,0.0944 -1.44895,1.21128 -3.42973,2.48189 -6.21719,3.98816 -14.96121,7.67941 -25.32771,10.69198 -2.92409,0.84976 -5.44623,1.5303 -5.60475,1.51232 -0.15851,-0.018 -1.72716,-0.92535 -3.48589,-2.01637 z m 7.87938,-3.72648 c -0.79465,-0.79465 -0.63351,-1.22494 0.45942,-1.22676 1.5325,-0.003 3.77197,-1.58978 4.10279,-2.90787 0.38011,-1.51447 -0.63098,-3.38743 -1.92971,-3.57466 -1.25048,-0.18027 -1.24313,-0.87239 0.0146,-1.37794 0.76022,-0.30557 0.39918,-0.40203 -1.58496,-0.42345 -2.22695,-0.024 -2.49741,0.0591 -2.02905,0.6234 0.58799,0.70849 0.49169,0.77571 -1.84314,1.28656 -1.84781,0.40429 -3.02844,1.94154 -2.87634,3.74515 0.10509,1.24604 0.39669,1.6607 1.54213,2.19291 1.48555,0.69023 1.86535,1.31262 0.80099,1.31262 -0.34677,0 -0.75218,0.1969 -0.90091,0.43755 -0.16832,0.27234 0.68094,0.43754 2.2494,0.43754 1.95985,0 2.40313,-0.11668 1.99476,-0.52505 l 1e-5,0 z"
     id="path10591"
     inkscape:connector-curvature="0" />
  <path
     style="fill:#aaaaff;fill-opacity:1;stroke:#ff0096;stroke-width:0;stroke-linecap:butt;stroke-linejoin:miter;stroke-miterlimit:0;stroke-dasharray:none;stroke-dashoffset:0;stroke-opacity:1"
     d=""
     id="path10593"
     inkscape:connector-curvature="0" />
  <path
     style="fill:#aaaaff;fill-opacity:1;stroke:#ff0096;stroke-width:0;stroke-linecap:butt;stroke-linejoin:miter;stroke-miterlimit:0;stroke-dasharray:none;stroke-dashoffset:0;stroke-opacity:1"
     d=""
     id="path10595"
     inkscape:connector-curvature="0" />
  <path
     style="fill:#aaaaff;fill-opacity:1;stroke:#ff0096;stroke-width:0;stroke-linecap:butt;stroke-linejoin:miter;stroke-miterlimit:0;stroke-dasharray:none;stroke-dashoffset:0;stroke-opacity:1"
     d="m 249.74592,162.4599 c 0.38992,-1.94168 1.12544,-3.60972 1.5917,-3.60972 0.23814,0 0.64277,0.39201 0.89919,0.87113 0.73896,1.38075 -0.88198,3.94183 -2.49484,3.94183 -0.13072,0 -0.12894,-0.54146 0.004,-1.20324 z"
     id="path10597"
     inkscape:connector-curvature="0" />
  <path
     style="fill:#aaaaff;fill-opacity:1;stroke:#ff0096;stroke-width:0;stroke-linecap:butt;stroke-linejoin:miter;stroke-miterlimit:0;stroke-dasharray:none;stroke-dashoffset:0;stroke-opacity:1"
     d="m 246.20085,163.13809 c -0.77183,-0.77184 -0.64264,-1.83269 0.38179,-3.13505 0.96449,-1.22615 2.4238,-1.60686 2.00823,-0.52391 -0.13274,0.34592 -0.45674,1.42883 -0.71999,2.40647 -0.50494,1.87523 -0.81486,2.10765 -1.67003,1.25249 z"
     id="path10599"
     inkscape:connector-curvature="0" />
  <path
     style="fill:#ccffaa;fill-opacity:1;stroke:#ff0096;stroke-width:0;stroke-linecap:butt;stroke-linejoin:miter;stroke-miterlimit:0;stroke-dasharray:none;stroke-dashoffset:0;stroke-opacity:1"
     d="m 116.0469,244.65563 -1.64799,-0.26606 1.98536,-2.95341 c 1.92006,-2.85627 1.9648,-3.45139 0.18799,-2.50047 -0.46547,0.24911 -0.84432,0.39678 -0.84189,0.32815 0.002,-0.0686 4.01111,-12.62753 8.90816,-27.90867 l 8.90373,-27.78389 17.01618,-0.31568 c 9.3589,-0.17362 19.63892,-0.47115 22.84448,-0.66117 l 5.8283,-0.34549 17.71331,18.27222 c 16.43039,16.94883 17.61464,18.27222 16.35111,18.27222 -1.82162,0 -1.40874,0.50017 1.97492,2.39241 1.56207,0.87356 2.84012,1.68998 2.84012,1.81426 0,0.12428 -2.41195,1.36403 -5.35988,2.755 -22.70604,10.71378 -46.97732,17.00971 -72.60452,18.83349 -6.75018,0.48038 -21.28881,0.52086 -24.09938,0.0671 z m 6.62102,-3.7664 c 0.73952,-0.84227 1.42443,-1.53139 1.52203,-1.53139 0.0976,0 0.29651,0.59532 0.44203,1.32295 0.39946,1.9973 1.49859,2.14681 3.0465,0.41439 0.90259,-1.01017 1.1366,-1.53094 0.74639,-1.66101 -0.31263,-0.10421 -0.75027,0.13546 -0.97253,0.53261 -0.61077,1.09138 -1.14165,0.46702 -1.47115,-1.73018 -0.34187,-2.27981 0.53108,-3.69172 2.2825,-3.69172 0.73435,0 1.02604,-0.24878 1.02604,-0.87508 0,-1.24431 -1.53734,-1.12768 -2.88379,0.21877 -1.25354,1.25354 -1.49162,1.33193 -1.49162,0.49111 0,-1.03335 -1.1121,-1.6032 -2.56261,-1.31309 -1.60115,0.32023 -1.80984,0.91817 -0.3908,1.1197 0.72222,0.10257 1.08931,0.56409 1.37804,1.7325 0.32668,1.32198 0.22772,1.86104 -0.58228,3.17163 -0.80755,1.30665 -1.15841,1.53315 -2.03435,1.3133 -0.84743,-0.21269 -1.0585,-0.0963 -1.0585,0.58393 0,1.94145 1.24899,1.90054 3.0041,-0.0984 z m 43.78985,-2.73463 c 0.56325,-2.02817 0.56835,-2.2971 0.0436,-2.2971 -0.22933,0 -0.62202,0.73836 -0.87264,1.64078 -0.56325,2.02817 -0.56835,2.2971 -0.0436,2.2971 0.22934,0 0.62203,-0.73835 0.87265,-1.64078 z m -32.8465,-6.2067 c 1.0465,-2.43266 1.19478,-3.9694 0.38204,-3.95945 -1.18153,0.0145 -1.6439,0.80198 -2.00009,3.40648 -0.46708,3.41539 0.27724,3.66977 1.61805,0.55297 z m 4.3932,-0.25328 c 1.0329,-2.49205 0.98241,-3.71287 -0.15355,-3.71287 -0.89804,0 -1.39308,1.11596 -1.69833,3.82849 -0.35027,3.11259 0.53682,3.0572 1.85188,-0.11562 z m 30.08083,0.0779 c 0.3201,-1.97253 -0.50275,-2.18959 -0.89352,-0.2357 -0.15041,0.75202 -0.27347,1.67743 -0.27347,2.05645 0,1.26029 0.89314,-0.13319 1.16699,-1.82075 z m 1.21001,-4.66581 0.49651,-1.75017 c 0.17262,-0.60847 0.0393,-0.87508 -0.43754,-0.87508 -0.37719,0 -0.68849,0.34457 -0.69177,0.7657 -0.004,0.42113 -0.1247,1.20871 -0.26981,1.75017 -0.15089,0.56305 -0.0673,0.98446 0.19526,0.98446 0.2525,0 0.57081,-0.39378 0.70735,-0.87508 z m 1.27196,-5.57865 c 0.60531,-2.23274 0.70099,-3.17218 0.32308,-3.17218 -0.56683,0 -0.74277,0.37063 -1.09037,2.29709 -0.29672,1.64439 0.35669,2.38959 0.76729,0.87509 z m 1.33596,-6.05199 c 0.4165,-1.08538 0.311,-2.80823 -0.17196,-2.80823 -0.24065,0 -0.44023,0.34456 -0.44351,0.7657 -0.004,0.42113 -0.1247,1.2087 -0.26981,1.75016 -0.29754,1.11027 0.47368,1.36497 0.88528,0.29237 z M 156.7468,209.9332 c -0.88487,-0.6789 -0.54394,-2.92086 0.49409,-3.24913 2.72343,-0.86126 3.09956,-1.17034 3.82176,-3.14047 0.40989,-1.11819 1.04393,-2.27716 1.40897,-2.57548 1.04062,-0.85044 0.15278,-1.25805 -1.14887,-0.52745 -0.7026,0.39436 -1.45093,1.41607 -1.87195,2.55581 -0.73397,1.98695 -2.1584,3.32141 -2.1584,2.02207 0,-1.20284 1.19868,-3.61885 2.03732,-4.10635 0.64026,-0.37217 0.27036,-0.47166 -1.79279,-0.48222 -2.27553,-0.0117 -2.49977,0.0596 -1.79935,0.57177 0.73214,0.53536 0.74854,0.73989 0.19301,2.40648 -0.77753,2.3326 -1.51486,2.16142 -1.36999,-0.31806 0.1113,-1.90486 -0.41992,-3.11173 -1.36904,-3.11029 -0.29824,4.3e-4 -0.52827,0.991 -0.58166,2.5047 -0.0901,2.55379 0.61244,4.05768 1.89546,4.05768 0.83772,0 -0.053,2.19615 -1.28269,3.16244 -0.94113,0.73957 -0.90561,0.75618 1.63749,0.7657 2.16694,0.008 2.48087,-0.0813 1.88664,-0.5372 z m 16.52085,-1.23272 c 0.27422,-1.62309 0.0772,-2.605 -0.42249,-2.10534 -0.47198,0.47199 -0.76469,3.88499 -0.33319,3.88499 0.25025,0 0.59031,-0.80084 0.75568,-1.77965 z m 1.08217,-6.42426 c 0.004,-0.7821 -0.16865,-1.42201 -0.38297,-1.42201 -0.43172,0 -0.92473,3.06319 -0.58849,3.65644 0.36321,0.64083 0.96443,-0.742 0.97146,-2.23443 z m 1.01486,-5.46089 c 0.27108,-2.02107 0.0481,-2.64189 -0.58771,-1.63649 -0.51545,0.81505 -0.5465,3.48767 -0.0405,3.48767 0.20896,0 0.49167,-0.83303 0.62823,-1.85118 z m 0.89004,-5.89221 c 0.29038,-1.78941 0.0238,-2.42293 -0.60266,-1.43232 -0.51569,0.81542 -0.54511,3.05012 -0.0402,3.05012 0.20916,0 0.49843,-0.72801 0.64282,-1.6178 z m 0.86012,-5.92141 c 0.26899,-2.00545 0.17599,-2.32935 -0.5415,-1.88592 -0.55582,0.34351 -0.63457,3.73709 -0.0867,3.73709 0.20896,0 0.49166,-0.83303 0.62822,-1.85117 z"
     id="path10605"
     inkscape:connector-curvature="0" />
  <path
     style="fill:#ccffaa;fill-opacity:1;stroke:#ff0096;stroke-width:0;stroke-linecap:butt;stroke-linejoin:miter;stroke-miterlimit:0;stroke-dasharray:none;stroke-dashoffset:0;stroke-opacity:1"
     d="m 134.18579,181.7834 c 0.12246,-0.46055 2.65847,-8.469 5.63558,-17.79655 l 5.41292,-16.95918 1.16029,1.20768 c 0.63815,0.66423 7.78603,8.06095 15.88417,16.43716 8.09813,8.37621 14.60912,15.41517 14.46886,15.64211 -0.14027,0.22695 0.0519,0.41264 0.42711,0.41264 0.37517,0 0.68213,0.16653 0.68213,0.37006 0,0.49829 -8.81132,0.88731 -27.96305,1.23459 -15.55057,0.28197 -15.92534,0.26889 -15.70801,-0.54851 z"
     id="path10607"
     inkscape:connector-curvature="0" />
  <path
     style="fill:#ccffaa;fill-opacity:1;stroke:#ff0096;stroke-width:0;stroke-linecap:butt;stroke-linejoin:miter;stroke-miterlimit:10;stroke-dasharray:none;stroke-dashoffset:0;stroke-opacity:1"
     d="m 277.50696,153.56332 c -3.49414,-1.28053 -3.91068,-1.26314 -2.66682,0.11129 0.6856,0.75758 0.6565,0.80098 -0.54693,0.8156 -0.69908,0.008 -21.99412,-1.41319 -47.32231,-3.1593 -35.45982,-2.44459 -46.05126,-3.30351 -46.05126,-3.73455 0,-0.69906 -0.74257,-0.73854 -0.97153,-0.0517 -0.12658,0.37973 -3.97797,0.25783 -15.24104,-0.4824 -8.28941,-0.5448 -15.59751,-1.11802 -16.24023,-1.27383 -0.98735,-0.23936 6.81217,-4.52452 50.28946,-27.62965 28.30192,-15.04048 53.40682,-28.384133 55.78866,-29.65254 l 4.33062,-2.306196 -0.30657,1.431112 -0.30656,1.431113 1.25427,-1.08448 c 0.68985,-0.596465 2.01017,-1.777827 2.93405,-2.62525 l 1.67978,-1.54077 2.50984,2.711299 c 4.03604,4.360002 8.13046,10.434413 11.14904,16.540532 5.04456,10.20433 6.76556,17.12121 7.1307,28.65897 l 0.24233,7.65698 -1.14781,-1.06074 c -1.38279,-1.27789 -1.51427,-0.49334 -0.21241,1.26751 0.79519,1.07555 0.89076,1.61394 0.63763,3.592 -0.53136,4.15223 -2.50077,11.73643 -3.03321,11.68082 -0.27981,-0.0292 -2.03468,-0.61236 -3.8997,-1.29585 z m -96.41536,-9.40657 c 0.39677,-1.03396 0.32037,-2.80824 -0.12092,-2.80824 -0.4135,0 -0.91033,1.47658 -0.92014,2.73464 -0.007,0.95457 0.68424,1.00347 1.04106,0.0736 z m 0.26559,-6.96488 c 0,-1.08292 -0.1969,-1.96894 -0.43755,-1.96894 -0.24064,0 -0.43754,0.88602 -0.43754,1.96894 0,1.08291 0.1969,1.96894 0.43754,1.96894 0.24065,0 0.43755,-0.88603 0.43755,-1.96894 z m 48.02151,0.98447 c -0.88487,-0.6789 -0.54393,-2.92087 0.4941,-3.24913 2.72343,-0.86126 3.09956,-1.17034 3.82175,-3.14048 0.4099,-1.11819 1.04394,-2.27715 1.40898,-2.57548 1.04062,-0.85043 0.15278,-1.25804 -1.14888,-0.52744 -0.7026,0.39435 -1.45092,1.41607 -1.87194,2.5558 -0.73397,1.98696 -2.1584,3.32141 -2.1584,2.02207 0,-1.20284 1.19868,-3.61885 2.03732,-4.10634 0.64026,-0.37217 0.27036,-0.47167 -1.7928,-0.48223 -2.27552,-0.0116 -2.49977,0.0596 -1.79934,0.57178 0.73214,0.53535 0.74854,0.73988 0.19301,2.40648 -0.77753,2.3326 -1.51486,2.16141 -1.36999,-0.31806 0.1113,-1.90486 -0.41992,-3.11173 -1.36904,-3.1103 -0.29824,4.4e-4 -0.52828,0.99101 -0.58166,2.5047 -0.0901,2.5538 0.61244,4.05768 1.89546,4.05768 0.83772,0 -0.053,2.19615 -1.28269,3.16245 -0.94114,0.73957 -0.90561,0.75618 1.63749,0.76569 2.16694,0.008 2.48087,-0.0813 1.88663,-0.53719 z m 52.17552,-2.09931 c 0,-0.49241 -2.19062,-2.56752 -2.73464,-2.59044 -0.7083,-0.0298 -0.26896,0.95533 0.87508,1.96227 1.31116,1.15403 1.85956,1.33928 1.85956,0.62817 z m -99.75949,-5.01074 c 0,-1.08292 -0.1969,-1.96894 -0.43754,-1.96894 -0.24065,0 -0.43755,0.88602 -0.43755,1.96894 0,1.08291 0.1969,1.96893 0.43755,1.96893 0.24064,0 0.43754,-0.88602 0.43754,-1.96893 z m 94.94653,1.18819 c 0,-0.4131 -2.34435,-1.84451 -3.02092,-1.84451 -0.84612,0 -0.51391,0.65102 0.72383,1.41841 1.28727,0.79812 2.29709,0.98543 2.29709,0.4261 z m -5.2505,-2.70835 c 0,-0.45101 -2.26241,-1.76141 -3.04106,-1.76141 -0.92056,0 -0.42461,0.73357 0.96274,1.42404 1.69325,0.8427 2.07832,0.90521 2.07832,0.33737 z m -5.2505,-2.63649 c 0,-0.24065 -0.0744,-0.43754 -0.16534,-0.43754 -0.0909,0 -0.86797,-0.29358 -1.72676,-0.6524 -0.96061,-0.40138 -1.6623,-0.48918 -1.8236,-0.22819 -0.1442,0.23332 0.38673,0.70773 1.17983,1.05425 1.74953,0.76439 2.53587,0.84622 2.53587,0.26388 z m -5.68804,-2.15377 c 0,-0.51356 -2.89211,-1.48404 -3.61353,-1.21257 -0.29871,0.11241 0.14601,0.51432 0.98828,0.89315 1.76034,0.79174 2.62525,0.89698 2.62525,0.31942 z m -5.68804,-1.79493 c 0,-0.53335 -1.86784,-1.3018 -3.1642,-1.3018 -1.16327,0 -0.67992,0.50613 1.11728,1.16995 1.78664,0.65992 2.04692,0.67669 2.04692,0.13185 z m -5.68804,-1.71352 c 0,-0.57192 -0.41304,-0.77457 -2.30043,-1.12865 -2.03516,-0.3818 -2.19572,0.35961 -0.21544,0.99487 1.87113,0.60024 2.51587,0.63452 2.51587,0.13378 z m -5.96646,-1.79187 c -0.65976,-0.65976 -3.65946,-1.07727 -3.65946,-0.50934 0,0.47061 1.09163,0.79483 3.04092,0.90318 0.73969,0.0411 0.93142,-0.081 0.61854,-0.39384 z m -5.84717,-1.24571 c 0,-0.45309 -1.51541,-0.91164 -3.04091,-0.92014 -0.65289,-0.004 -0.90948,0.14848 -0.65631,0.3891 0.79296,0.75367 3.69722,1.17082 3.69722,0.53104 z m -5.68804,-1.36366 c 0,-0.24064 -0.27073,-0.43754 -0.60162,-0.43754 -0.33089,0 -1.21691,-0.12306 -1.96893,-0.27346 -1.4431,-0.28862 -1.99169,0.48367 -0.60162,0.84694 1.43986,0.37627 3.17217,0.30204 3.17217,-0.13594 z m -6.12558,-0.82827 c 0,-0.5425 -1.13113,-0.92189 -2.74854,-0.92189 -2.28951,0 -0.62989,0.94456 2.20161,1.25304 0.30081,0.0328 0.54693,-0.11625 0.54693,-0.33115 z m -5.97807,-1.35183 c -0.20146,-0.18215 -1.10464,-0.44289 -2.00706,-0.57942 -1.22172,-0.18485 -1.64079,-0.0944 -1.64079,0.35414 0,0.37912 0.60816,0.65511 1.64079,0.74463 1.83906,0.15942 2.55336,-0.0254 2.00706,-0.51935 z m -5.83555,-0.66392 c 0,-0.49029 -0.52019,-0.65631 -2.05645,-0.65631 -2.34219,0 -2.12403,0.70707 0.30628,0.99264 0.84227,0.099 1.58062,0.21145 1.64078,0.24996 0.0602,0.0385 0.10939,-0.22531 0.10939,-0.58629 z m 34.29072,-4.19054 c 1.2165,-0.9569 6.35819,-7.38421 7.21283,-9.01632 0.71506,-1.365553 0.61861,-3.183059 -0.18528,-3.49154 -1.09562,-0.42043 -1.80668,0.577312 -1.15505,1.62074 0.58766,0.940987 0.15486,2.11113 -1.60337,4.33497 l -0.8467,1.07093 -0.28407,-2.60232 c -0.50678,-4.6426 -0.52156,-4.672938 -2.11377,-4.337608 -1.57434,0.331569 -2.64589,1.078971 -1.54692,1.078971 1.16806,0 1.55114,0.957174 1.83871,4.594187 0.23881,3.02032 0.16447,3.64416 -0.54214,4.54922 -0.50262,0.64377 -1.30638,1.06625 -2.08105,1.09385 -0.95879,0.0342 -1.29575,0.28158 -1.40196,1.02943 -0.18276,1.28678 1.12262,1.32316 2.70877,0.0755 z M 260.0608,96.310009 c 1.0465,-2.432666 1.19478,-3.969404 0.38203,-3.959448 -1.18152,0.01447 -1.64389,0.801971 -2.00008,3.406473 -0.46709,3.415393 0.27724,3.669773 1.61805,0.552975 z m 4.3932,-0.253282 c 1.0329,-2.492057 0.98241,-3.712866 -0.15355,-3.712866 -0.89804,0 -1.39308,1.115954 -1.69834,3.828489 -0.35027,3.112587 0.53683,3.057197 1.85189,-0.115623 z m 4.26376,0.05695 c 1.16904,-2.383619 1.15364,-3.76982 -0.0419,-3.76982 -0.89011,0 -1.38815,1.098514 -1.73574,3.828489 -0.38304,3.008421 0.2842,2.986401 1.77763,-0.05867 z"
     id="path10627"
     inkscape:connector-curvature="0" />
</svg>
